#!OML:ASF H:\Terrain\Patient Classification 1\Animal1\Tuesday\Animal1.ASF
:FULLY-SPECIFIED
:DEGREES
2190
root -0.895506 16.2441 -14.3795 12.3155 0.61906 -1.69275
lowerback -5.17324 -0.642451 4.18143
upperback -9.0034 -0.780131 2.44851
thorax -6.53153 -0.568951 0.230944
lowerneck -5.71574 5.92503 -1.87644
upperneck 19.7195 6.41698 10.7549
head 6.47164 3.86213 4.21717
rclavicle -2.15681e-014 3.18055e-014
rhumerus -34.9997 85.4332 -60.559
rradius 70.5985
rwrist -39.3149
rhand -9.04257 32.1176
rfingers 7.12502
rthumb 16.9055 2.83343
lclavicle -2.15681e-014 3.18055e-014
lhumerus -44.2711 -80.5219 74.0474
lradius 69.688
lwrist 4.42265
lhand 23.9781 19.9095
lfingers 7.12502
lthumb 48.2213 42.0184
rfemur -21.8112 34.866 10.42
rtibia 18.0541
rfoot -22.3544 -35.4039
rtoes 19.0392
lfemur -28.1922 -55.7966 14.9444
ltibia 9.45426
lfoot -39.7506 51.4697
ltoes 6.2399
2191
root -0.894004 16.2434 -14.3737 12.3379 0.650212 -1.58906
lowerback -5.21136 -0.61312 3.9497
upperback -8.99421 -0.740875 2.45407
thorax -6.49268 -0.533389 0.364286
lowerneck -5.85047 5.90473 -1.87138
upperneck 19.7542 6.37836 10.7954
head 6.50793 3.8508 4.23448
rclavicle -1.73937e-014 2.3059e-014
rhumerus -35.338 85.833 -60.6286
rradius 71.3838
rwrist -39.5799
rhand -8.75913 32.7418
rfingers 7.12502
rthumb 17.1783 3.48114
lclavicle -1.73937e-014 2.3059e-014
lhumerus -45.1707 -80.754 74.7603
lradius 70.6755
lwrist 5.29111
lhand 23.8286 19.9766
lfingers 7.12502
lthumb 48.0836 42.1504
rfemur -21.867 34.6623 10.3419
rtibia 18.2181
rfoot -22.2251 -35.0951
rtoes 19.0082
lfemur -28.0176 -55.7904 14.8209
ltibia 9.10834
lfoot -39.7866 51.2286
ltoes 7.42632
2192
root -0.888796 16.2419 -14.366 12.2636 0.770281 -1.39563
lowerback -5.18454 -0.639019 3.69148
upperback -8.96999 -0.773362 2.42954
thorax -6.4761 -0.533234 0.482196
lowerneck -5.88896 5.90381 -1.82896
upperneck 19.7584 6.37134 10.7951
head 6.51849 3.85149 4.22895
rclavicle -1.2921e-015 8.74653e-015
rhumerus -36.2487 85.9637 -61.3232
rradius 72.2173
rwrist -39.2997
rhand -9.07705 32.8337
rfingers 7.12502
rthumb 16.8723 3.54668
lclavicle -1.2921e-015 8.74653e-015
lhumerus -46.6 -80.916 76.0288
lradius 71.5383
lwrist 6.34083
lhand 23.356 19.9146
lfingers 7.12502
lthumb 47.6477 42.2901
rfemur -21.7443 34.3245 10.2813
rtibia 18.4077
rfoot -21.6926 -34.81
rtoes 17.5078
lfemur -27.7288 -55.9517 14.5165
ltibia 8.69509
lfoot -38.5708 51.7286
ltoes 5.70014
2193
root -0.880121 16.2433 -14.3573 12.1306 0.948299 -1.27143
lowerback -5.13827 -0.695009 3.62213
upperback -8.92025 -0.848005 2.40075
thorax -6.44843 -0.566251 0.490768
lowerneck -5.94374 5.92684 -1.79579
upperneck 19.8267 6.393 10.8015
head 6.54977 3.86736 4.23218
rclavicle -1.0635e-014 -8.74653e-015
rhumerus -37.3123 85.9649 -62.2511
rradius 73.0332
rwrist -38.7659
rhand -9.10341 33.0795
rfingers 7.12502
rthumb 16.8469 3.79033
lclavicle -1.0635e-014 -8.74653e-015
lhumerus -48.4129 -81.0902 77.697
lradius 72.3408
lwrist 7.75963
lhand 22.7652 20.3188
lfingers 7.12502
lthumb 47.1018 42.9401
rfemur -21.4886 34.013 10.3316
rtibia 18.5143
rfoot -20.9698 -34.7024
rtoes 15.0045
lfemur -27.4371 -56.1724 14.2703
ltibia 8.32558
lfoot -38.0291 51.8612
ltoes 5.34789
2194
root -0.870461 16.245 -14.3481 12.1388 1.2254 -1.27469
lowerback -5.27643 -0.713062 3.75909
upperback -8.89812 -0.883969 2.33853
thorax -6.35098 -0.593856 0.346752
lowerneck -6.04778 5.91139 -1.67977
upperneck 19.9552 6.33889 10.8469
head 6.61639 3.85809 4.23507
rclavicle 5.66536e-015 1.66979e-014
rhumerus -40.0993 85.895 -64.8927
rradius 73.84
rwrist -38.2581
rhand -8.54063 33.6989
rfingers 7.12502
rthumb 17.3886 4.4567
lclavicle 5.66536e-015 1.66979e-014
lhumerus -49.8036 -81.3732 78.8896
lradius 73.2513
lwrist 9.24456
lhand 22.335 21.0146
lfingers 7.12502
lthumb 46.7038 43.8102
rfemur -21.4045 33.8902 10.3741
rtibia 18.5931
rfoot -20.8198 -34.7368
rtoes 14.3763
lfemur -27.6059 -56.3294 14.5208
ltibia 8.09977
lfoot -38.1357 51.7989
ltoes 5.84958
2195
root -0.863885 16.2442 -14.3381 12.127 1.34349 -1.25254
lowerback -5.38205 -0.68543 3.79278
upperback -8.88538 -0.855906 2.27944
thorax -6.27814 -0.583116 0.263956
lowerneck -6.09648 5.90537 -1.61393
upperneck 20.05 6.29478 10.9595
head 6.65691 3.85419 4.26451
rclavicle -1.60022e-014 1.82882e-014
rhumerus -43.5758 85.9666 -68.1433
rradius 74.7297
rwrist -38.2053
rhand -8.40006 33.9522
rfingers 7.12502
rthumb 17.5239 4.72201
lclavicle -1.60022e-014 1.82882e-014
lhumerus -51.0412 -81.5361 79.943
lradius 74.0765
lwrist 10.4158
lhand 22.2927 20.9992
lfingers 7.12502
lthumb 46.6647 43.8118
rfemur -21.3346 33.817 10.3661
rtibia 18.652
rfoot -20.5703 -34.616
rtoes 14.6739
lfemur -27.5312 -56.394 14.492
ltibia 7.91789
lfoot -37.8354 52.0374
ltoes 5.17539
2196
root -0.859147 16.2439 -14.3283 12.0188 1.31684 -1.17578
lowerback -5.31114 -0.658916 3.67085
upperback -8.89186 -0.815308 2.2672
thorax -6.32147 -0.555989 0.320147
lowerneck -6.04832 5.92269 -1.60667
upperneck 20.0885 6.30733 11.0088
head 6.65812 3.86507 4.27969
rclavicle -1.5207e-014 1.11319e-014
rhumerus -47.6865 86.3187 -72.0294
rradius 75.6051
rwrist -38.4284
rhand -8.71639 34.4585
rfingers 7.12502
rthumb 17.2194 5.20143
lclavicle -1.5207e-014 1.11319e-014
lhumerus -52.5804 -81.5407 81.3418
lradius 74.8867
lwrist 11.5144
lhand 22.562 20.8274
lfingers 7.12502
lthumb 46.9139 43.5314
rfemur -21.1666 33.7036 10.3837
rtibia 18.7172
rfoot -19.5008 -34.7574
rtoes 13.0672
lfemur -27.1143 -56.4243 14.0865
ltibia 7.73554
lfoot -37.335 52.1516
ltoes 4.39206
2197
root -0.854633 16.2445 -14.3205 11.9777 1.45378 -1.10831
lowerback -5.31799 -0.663321 3.57521
upperback -8.90396 -0.820283 2.25007
thorax -6.3286 -0.552952 0.355572
lowerneck -5.94065 5.914 -1.52311
upperneck 20.0268 6.2968 10.9709
head 6.62511 3.85973 4.24598
rclavicle -1.38155e-014 -4.77083e-015
rhumerus -52.1627 86.4157 -76.2255
rradius 76.5082
rwrist -38.4503
rhand -9.22895 35.523
rfingers 7.12502
rthumb 16.726 6.22356
lclavicle -1.38155e-014 -4.77083e-015
lhumerus -53.7192 -81.5641 82.3225
lradius 75.8428
lwrist 12.8296
lhand 23.1134 20.9089
lfingers 7.12502
lthumb 47.4236 43.3862
rfemur -21.1026 33.7617 10.3514
rtibia 18.8293
rfoot -18.8791 -35.1655
rtoes 11.2132
lfemur -27.0166 -56.5225 14.0353
ltibia 7.44824
lfoot -36.5031 52.2688
ltoes 3.30447
2198
root -0.851014 16.2441 -14.3136 11.8829 1.50202 -1.08011
lowerback -5.26561 -0.63284 3.53153
upperback -8.87051 -0.778625 2.21822
thorax -6.32048 -0.530053 0.346525
lowerneck -5.8981 5.92627 -1.4712
upperneck 19.9436 6.31001 10.9902
head 6.59155 3.86921 4.23904
rclavicle -1.98785e-015 3.97569e-015
rhumerus -55.7577 86.2075 -79.4402
rradius 77.5749
rwrist -38.5219
rhand -9.78604 35.6974
rfingers 7.12502
rthumb 16.1897 6.35346
lclavicle -1.98785e-015 3.97569e-015
lhumerus -54.3816 -81.5081 82.8317
lradius 76.7669
lwrist 14.2262
lhand 23.6209 21.2689
lfingers 7.12502
lthumb 47.8921 43.5319
rfemur -21.0783 33.8979 10.3431
rtibia 19.0184
rfoot -18.2485 -35.4984
rtoes 9.67641
lfemur -26.5615 -56.5983 13.8043
ltibia 6.94098
lfoot -35.8141 52.2831
ltoes 2.68493
2199
root -0.847008 16.244 -14.3075 11.84 1.4528 -0.992675
lowerback -5.22727 -0.590347 3.41532
upperback -8.85245 -0.721659 2.16518
thorax -6.31932 -0.496043 0.355712
lowerneck -5.99538 5.97265 -1.4065
upperneck 20.0296 6.3467 11.0586
head 6.63412 3.90142 4.2607
rclavicle 1.70955e-014 -1.51076e-014
rhumerus -59.154 86.0589 -82.6387
rradius 78.5277
rwrist -38.3932
rhand -10.5161 35.3763
rfingers 7.12502
rthumb 15.4866 5.97657
lclavicle 1.70955e-014 -1.51076e-014
lhumerus -55.5039 -81.4467 83.7625
lradius 77.6041
lwrist 15.3843
lhand 24.5238 21.69
lfingers 7.12502
lthumb 48.7236 43.558
rfemur -21.144 33.9635 10.2212
rtibia 19.2163
rfoot -17.1022 -35.7988
rtoes 7.9852
lfemur -25.9957 -56.5966 13.4296
ltibia 6.34857
lfoot -35.4221 52.1599
ltoes 2.59499
2200
root -0.84259 16.2453 -14.2987 11.9548 1.59941 -0.75034
lowerback -5.40968 -0.627874 3.17808
upperback -8.86553 -0.781444 2.07704
thorax -6.22645 -0.513332 0.393273
lowerneck -6.14536 6.02329 -1.33784
upperneck 20.2112 6.37123 11.1797
head 6.71572 3.93565 4.30486
rclavicle -2.41523e-014 1.27222e-014
rhumerus -62.0995 86.0186 -85.5573
rradius 79.3067
rwrist -38.3666
rhand -11.1755 35.9624
rfingers 7.12502
rthumb 14.8514 6.51468
lclavicle -2.41523e-014 1.27222e-014
lhumerus -56.719 -81.361 84.7325
lradius 78.4467
lwrist 16.3666
lhand 25.8747 21.9788
lfingers 7.12502
lthumb 49.963 43.2209
rfemur -21.2795 34.0953 9.84598
rtibia 19.3188
rfoot -17.0466 -35.985
rtoes 8.63303
lfemur -26.0996 -56.6654 13.3865
ltibia 5.99551
lfoot -34.7089 52.2056
ltoes 1.87436
2201
root -0.837699 16.2463 -14.2827 11.9885 1.72201 -0.605494
lowerback -5.5896 -0.671259 3.07888
upperback -8.85748 -0.848934 2.02551
thorax -6.11512 -0.541685 0.391645
lowerneck -6.20529 6.07974 -1.33565
upperneck 20.3053 6.42469 11.2745
head 6.74926 3.97311 4.34524
rclavicle 9.44227e-015 1.19271e-014
rhumerus -65.3216 86.0082 -88.6792
rradius 80.1445
rwrist -38.6258
rhand -11.3514 36.7183
rfingers 7.12502
rthumb 14.682 7.25818
lclavicle 9.44227e-015 1.19271e-014
lhumerus -57.8282 -81.0965 85.6037
lradius 79.2682
lwrist 17.3003
lhand 26.556 22.1845
lfingers 7.12502
lthumb 50.5858 43.0942
rfemur -21.2156 34.0608 9.69028
rtibia 19.3393
rfoot -18.0635 -35.5655
rtoes 10.8457
lfemur -26.0819 -56.746 13.2567
ltibia 5.85377
lfoot -33.8438 52.3356
ltoes 0.018339
2202
root -0.834739 16.2448 -14.2665 11.9478 1.80629 -0.765397
lowerback -5.65253 -0.692455 3.24338
upperback -8.86749 -0.87942 2.08598
thorax -6.09412 -0.564756 0.362299
lowerneck -6.17016 6.14729 -1.31519
upperneck 20.3294 6.51702 11.2631
head 6.74568 4.01817 4.34322
rclavicle 1.00386e-014 4.77083e-015
rhumerus -68.7682 85.9726 -91.953
rradius 81.0108
rwrist -38.7876
rhand -11.2818 36.7511
rfingers 7.12502
rthumb 14.749 7.29586
lclavicle 1.00386e-014 4.77083e-015
lhumerus -59.4111 -80.8016 87.0088
lradius 79.9997
lwrist 18.0532
lhand 26.4285 22.2732
lfingers 7.12502
lthumb 50.4693 43.2459
rfemur -21.0318 33.6931 10.0024
rtibia 19.3325
rfoot -18.6675 -34.8649
rtoes 12.1681
lfemur -25.8748 -56.7665 13.304
ltibia 5.739
lfoot -33.3562 52.3572
ltoes -1.7661
2203
root -0.835917 16.245 -14.2539 11.9339 1.90766 -0.909554
lowerback -5.6489 -0.70209 3.27627
upperback -8.90273 -0.887337 2.16811
thorax -6.13423 -0.568113 0.430508
lowerneck -6.09915 6.19775 -1.34066
upperneck 20.2664 6.58653 11.3174
head 6.70451 4.05201 4.36281
rclavicle -4.37326e-015 -1.51076e-014
rhumerus -72.3376 85.8493 -95.3242
rradius 81.8787
rwrist -38.9734
rhand -11.5881 36.5158
rfingers 7.12502
rthumb 14.4539 7.03913
lclavicle -4.37326e-015 -1.51076e-014
lhumerus -61.1141 -80.5949 88.5839
lradius 80.6953
lwrist 18.6165
lhand 25.9797 22.1775
lfingers 7.12502
lthumb 50.059 43.3692
rfemur -20.8555 33.2175 10.3297
rtibia 19.2679
rfoot -18.0317 -34.6681
rtoes 11.538
lfemur -25.9578 -56.7425 13.5277
ltibia 5.84177
lfoot -33.5016 52.1242
ltoes -1.60721
2204
root -0.838553 16.2504 -14.2417 11.9599 1.86825 -0.849688
lowerback -5.65072 -0.685114 3.08625
upperback -8.93121 -0.860419 2.17945
thorax -6.15875 -0.542644 0.548698
lowerneck -6.07615 6.24433 -1.41241
upperneck 20.1801 6.64058 11.4654
head 6.65946 4.08337 4.42012
rclavicle -4.57205e-015 -7.95139e-016
rhumerus -75.8165 85.6354 -98.6344
rradius 82.7156
rwrist -39.1235
rhand -11.7395 37.3138
rfingers 7.12502
rthumb 14.3081 7.82677
lclavicle -4.57205e-015 -7.95139e-016
lhumerus -62.7921 -80.422 90.0541
lradius 81.4597
lwrist 19.1542
lhand 25.4285 22.0898
lfingers 7.12502
lthumb 49.5543 43.5434
rfemur -20.7326 32.903 10.3466
rtibia 19.095
rfoot -17.1887 -34.5321
rtoes 10.7182
lfemur -26.2174 -56.5996 13.4902
ltibia 6.3331
lfoot -33.9627 51.8014
ltoes -1.77832
